<?xml version="1.0" encoding="UTF-8" standalone="no"?>
<!-- Created with Inkscape (http://www.inkscape.org/) -->

<svg
   xmlns:dc="http://purl.org/dc/elements/1.1/"
   xmlns:cc="http://creativecommons.org/ns#"
   xmlns:rdf="http://www.w3.org/1999/02/22-rdf-syntax-ns#"
   xmlns:svg="http://www.w3.org/2000/svg"
   xmlns="http://www.w3.org/2000/svg"
   xmlns:sodipodi="http://sodipodi.sourceforge.net/DTD/sodipodi-0.dtd"
   xmlns:inkscape="http://www.inkscape.org/namespaces/inkscape"
   width="443.99612"
   height="213.20332"
   id="svg2"
   version="1.1"
   inkscape:version="0.48.1 r9760"
   sodipodi:docname="logo_v0.1.svg">
  <defs
     id="defs4">
    <filter
       inkscape:collect="always"
       id="filter3972"
       x="-0.087188832"
       width="1.1743777"
       y="-0.10634161"
       height="1.2126832"
       color-interpolation-filters="sRGB">
      <feGaussianBlur
         inkscape:collect="always"
         stdDeviation="9.446825"
         id="feGaussianBlur3974" />
    </filter>
  </defs>
  <sodipodi:namedview
     id="base"
     pagecolor="#ffffff"
     bordercolor="#666666"
     borderopacity="1.0"
     inkscape:pageopacity="0"
     inkscape:pageshadow="2"
     inkscape:zoom="1.4142136"
     inkscape:cx="263.79264"
     inkscape:cy="94.960751"
     inkscape:document-units="px"
     inkscape:current-layer="layer1"
     showgrid="false"
     inkscape:window-width="1366"
     inkscape:window-height="744"
     inkscape:window-x="0"
     inkscape:window-y="24"
     inkscape:window-maximized="1"
     fit-margin-top="0"
     fit-margin-left="0"
     fit-margin-right="0"
     fit-margin-bottom="0" />
  <metadata
     id="metadata7">
    <rdf:RDF>
      <cc:Work
         rdf:about="">
        <dc:format>image/svg+xml</dc:format>
        <dc:type
           rdf:resource="http://purl.org/dc/dcmitype/StillImage" />
        <dc:title></dc:title>
      </cc:Work>
    </rdf:RDF>
  </metadata>
  <g
     inkscape:label="Layer 1"
     inkscape:groupmode="layer"
     id="layer1"
     transform="translate(-4.3314544,-837.57318)">
    <text
       xml:space="preserve"
       style="font-size:85.85853577px;font-style:italic;font-variant:normal;font-weight:bold;font-stretch:normal;line-height:125%;letter-spacing:0px;word-spacing:0px;fill:#6464c8;fill-opacity:1;stroke:none;font-family:Impact;-inkscape-font-specification:Impact Bold Italic"
       x="187.48196"
       y="1033.8311"
       id="text3804"
       sodipodi:linespacing="125%"><tspan
         sodipodi:role="line"
         id="tspan3806"
         x="187.48196"
         y="1033.8311"
         style="font-style:italic;font-variant:normal;font-weight:bold;font-stretch:normal;font-family:Droid Sans;-inkscape-font-specification:Droid Sans Bold Italic">ENRIR</tspan></text>
    <path
       style="fill:#6464c8;fill-opacity:1;stroke:none"
       d="m 262.20943,837.57318 c -3.18209,0.008 -14.88424,6.52709 -23.18483,9.41706 -26.5619,9.24791 -41.12132,14.99462 -57.29137,16.57053 -16.17005,1.57592 -22.38582,-9.24028 -36.39149,-7.2836 -14.00568,1.95668 -33.17539,7.07539 -47.933812,10.8657 -14.75843,3.79032 -29.18249,8.0039 -59.629876,11.17904 2.300341,12.45586 26.448566,11.14628 31.701486,17.55737 2.99108,3.65055 -7.62974,14.0386 -5.63722,16.87568 1.28313,1.82701 13.18696,-3.85919 13.57218,-1.89719 0.31816,1.62042 -7.38925,11.72059 -5.53236,12.77616 2.4609,1.39893 14.55307,-6.29103 14.1294,-4.11278 -19.3383,29.14608 -0.4197,6.33171 4.03811,17.71769 -24.30813,48.57541 -39.06981,66.00886 -85.7181936,113.53766 37.0801636,-6.5227 94.0991036,-4.1856 123.9841956,-0.3576 9.83059,-27.4627 12.84303,-49.3239 22.26299,-64.6319 2.66844,-4.33636 3.90711,4.02643 8.8299,10.82355 6.45513,-14.50699 9.25552,-18.91834 13.09006,-23.11099 5.96979,-6.52731 6.65938,-1.74492 14.65095,5.28768 7.45745,-11.47865 24.00551,-34.12296 28.07788,-38.47616 26.17352,-15.87293 23.25022,-12.37693 43.68368,-24.02748 0.98856,-8.16044 0.61572,-8.04095 1.85095,-13.13525 1.23522,-5.0943 -17.10574,7.2883 -46.89382,4.07513 27.54941,-32.62981 19.02502,-19.13132 50.33681,-44.23406 0.78549,-16.37866 -1.47665,-10.97558 -1.99562,-25.41624 z m -89.57657,42.4654 c -9.16413,1.74393 -10.56187,3.27904 -15.99866,3.18579 -5.75621,-0.0987 -10.66627,-2.3586 -16.81298,-3.95186 -7.49837,-1.94362 -8.05027,-0.82406 -17.45929,-1.72245 3.28868,-5.62324 8.31833,-6.49133 24.87115,-9.41454 15.91088,3.76778 15.86286,7.49182 25.39978,11.90306 z"
       id="path3029-2"
       inkscape:connector-curvature="0"
       sodipodi:nodetypes="ccssscssssccccscscccsccccasccc" />
  </g>
</svg>
